<?xml version="1.0" encoding="UTF-8" standalone="no"?><!DOCTYPE svg PUBLIC "-//W3C//DTD SVG 1.1//EN" "http://www.w3.org/Graphics/SVG/1.1/DTD/svg11.dtd"><svg width="100%" height="100%" viewBox="0 0 640 640" version="1.1" xmlns="http://www.w3.org/2000/svg" xmlns:xlink="http://www.w3.org/1999/xlink" xml:space="preserve" xmlns:serif="http://www.serif.com/" style="fill-rule:evenodd;clip-rule:evenodd;stroke-linejoin:round;stroke-miterlimit:1.41421;"><path d="M629.657,407.598l-100.686,100.686c-9.373,9.372 -24.568,9.372 -33.941,0l-100.687,-100.686c-9.373,-9.373 -9.373,-24.569 0,-33.941l10.823,-10.823c9.562,-9.562 25.133,-9.34 34.419,0.492l40.415,42.792l0,-182.118l-187.549,0c-6.363,0 -12.471,-2.53 -16.971,-7.029l-16,-16c-15.119,-15.12 -4.411,-40.971 16.971,-40.971l243.549,0c13.255,0 24,10.745 24,24l0,222.118l40.416,-42.792c9.285,-9.831 24.856,-10.054 34.419,-0.492l10.823,10.823c9.372,9.372 9.372,24.569 -0.001,33.941Zm-265.138,15.431c-4.499,-4.499 -10.608,-7.029 -16.971,-7.029l-187.548,0l0,-182.119l40.416,42.792c9.286,9.831 24.856,10.054 34.419,0.491l10.822,-10.822c9.373,-9.373 9.373,-24.569 0,-33.941l-100.686,-100.685c-9.373,-9.373 -24.569,-9.373 -33.941,0l-100.687,100.686c-9.373,9.373 -9.373,24.569 0,33.941l10.822,10.822c9.562,9.562 25.133,9.34 34.419,-0.491l40.416,-42.793l0,222.119c0,13.255 10.745,24 24,24l243.549,0c21.382,0 32.09,-25.851 16.971,-40.971l-16.001,-16Z" style="fill-rule:nonzero;"/></svg>